<svg xmlns="http://www.w3.org/2000/svg" viewBox="0 0 1000 223.4"  xmlns:v="https://vecta.io/nano"><path d="M584.4 144.7V96l-53.1-75.7c-6.1-8.8-2.4-16 8.3-16h25.2c7 0 12.1 2.6 15.8 8.8L607.4 57l27-43.9c3.7-6.2 8.8-8.8 15.8-8.8h25c10.8 0 14.5 7.3 8.1 16l-52.9 74.8v49.6c0 8.6-4.6 13.2-13.2 13.2h-19.7c-8.5 0-13.1-4.6-13.1-13.2zm100-63.6c0-42.8 31.2-79.2 82.9-79.2 51.8 0 82.9 36.4 82.9 79.2s-31.2 79.2-82.9 79.2c-51.8 0-82.9-36.4-82.9-79.2zm119.8 0c0-21.5-13.4-39.7-36.9-39.7s-36.9 18.2-36.9 39.7 13.4 39.7 36.9 39.7 36.9-18.2 36.9-39.7zm63.3 17.3V17.5c0-8.6 4.6-13.2 13.2-13.2h19.7c8.6 0 13.2 4.6 13.2 13.2v80.9c0 14.5 9 22.4 20 22.4s20.4-7.9 20.4-22.4V17.5c0-8.6 4.6-13.2 13.2-13.2h19.7c8.6 0 13.2 4.6 13.2 13.2v80.9c0 40.2-30.5 61.9-66.5 61.9s-66.1-21.7-66.1-61.9zM298.2 204.2v-185c0-12.4 6.7-19.2 19.1-19.2h18.5c10.2 0 17.6 3.8 23.3 12.1l65.7 92.5V19.2C424.9 6.7 431.6 0 444 0h28.7c12.4 0 19.1 6.7 19.1 19.2v185.1c0 12.4-6.7 19.2-19.1 19.2h-18.2c-10.2 0-17.2-3.8-23-12.1l-66.4-94.5v87.4c0 12.4-6.7 19.2-19.1 19.2h-28.7c-12.4-.1-19.1-6.8-19.1-19.3z" fill="#d2504e"/><path d="M580.4 223.4c-7.5 0-11.6-4-11.6-11.6v-17.3c0-7.5 4.1-11.5 11.6-11.5h407.8c7.5 0 11.6 4 11.6 11.5v17.3c0 7.5-4 11.5-11.6 11.5H580.4z" fill="#f7b784"/><path d="M3 172.2l63.6 32.1-.1.9c-1 11.8-8 18.2-20.1 18.2H18.3c-12.8 0-19.5-7-18.2-20.1L3 172.2zm263.3 31.1l-2.8-31.1-63.6 32.1.1.9c1 11.8 8 18.2 20.1 18.2h28.1c12.6 0 19.3-7 18.1-20.1zm-3.8-41.2l-112.3 56.8c-3.2 1.5-7 2.2-11.3 2.2h-11.4c-4.3 0-8.1-.7-11.3-2.2L3.9 162.1 17.1 18.2C18 6.4 25 0 36.9 0h4c4.6 0 8.5.8 11.8 2.6 3.9 2.1 61.2 30.9 76.7 38.7a8.91 8.91 0 0 0 7.8 0l76.7-38.7C217.1.8 221 0 225.6 0h4c11.8 0 18.8 6.4 19.8 18.2l13.1 143.9zm-126.3 18.6l83.5-42.3-8.2-89.3-56.3 28.4c-6.8 3.4-14.5 5.2-22.1 5.2s-15.3-1.8-22.1-5.2L54.7 49.1l-8.2 89.3 83.5 42.3s2.2.7 3 .7c1 0 3.2-.7 3.2-.7z" fill="#d2504e"/><path d="M143.8 158.8l65-32.9c2.3-1.2 3.2-3.9 2-6.2s-3.9-3.2-6.2-2l-65 32.9c-2.3 1.2-3.2 3.9-2 6.2.8 1.6 2.4 2.5 4.1 2.5.7 0 1.4-.2 2.1-.5zm-.5-46.4l61.8-31.3c2.3-1.2 3.2-3.9 2-6.2s-3.9-3.2-6.2-2l-61.8 31.3c-2.3 1.2-3.2 3.9-2 6.2.8 1.6 2.4 2.5 4.1 2.5a4.65 4.65 0 0 0 2.1-.5zm.2 23.2l63.4-32.1c2.3-1.2 3.2-3.9 2-6.2s-3.9-3.2-6.2-2l-63.4 32.1c-2.3 1.2-3.2 3.9-2 6.2.8 1.6 2.4 2.5 4.1 2.5a4.65 4.65 0 0 0 2.1-.5zm-14.6 21.1c1.2-2.3.2-5.1-2-6.2l-65-32.9a4.72 4.72 0 0 0-6.2 2c-1.2 2.3-.2 5.1 2 6.2l65 32.9c.7.3 1.4.5 2.1.5 1.6.1 3.3-.9 4.1-2.5zm.4-46.4c1.2-2.3.2-5.1-2-6.2L65.4 72.8a4.72 4.72 0 0 0-6.2 2c-1.2 2.3-.2 5.1 2 6.2l61.8 31.3c.7.3 1.4.5 2.1.5 1.7.1 3.4-.9 4.2-2.5zm-.2 23.2c1.1-2.3.2-5.1-2-6.2L63.6 95.2a4.72 4.72 0 0 0-6.2 2c-1.2 2.3-.2 5.1 2 6.2l63.4 32.1c.7.3 1.4.5 2.1.5 1.7.1 3.4-.9 4.2-2.5z" fill="#f7b784"/></svg>